<svg id="valider" xmlns="http://www.w3.org/2000/svg" width="40" height="40" viewBox="0 0 40 40">
  <defs>
    <style>
      .cls-1, .cls-2 {
        fill: #0bea7e;
      }

      .cls-1 {
        stroke: #0bea7e;
      }

      .cls-3, .cls-5 {
        fill: none;
      }

      .cls-3 {
        stroke: #fff;
      }

      .cls-4, .cls-6 {
        stroke: none;
      }

      .cls-6 {
        fill: #fff;
      }
    </style>
  </defs>
  <g id="Ellipse_14" data-name="Ellipse 14" class="cls-1">
    <circle class="cls-4" cx="20" cy="20" r="20"/>
    <circle class="cls-5" cx="20" cy="20" r="19.5"/>
  </g>
  <g id="Tracé_23" data-name="Tracé 23" class="cls-2" transform="translate(2 2)">
    <path class="cls-4" d="M 18 35.5 C 13.32557964324951 35.5 8.930950164794922 33.67967987060547 5.625629901885986 30.37437057495117 C 2.320319890975952 27.06905937194824 0.5 22.67441940307617 0.5 18 C 0.5 13.32557964324951 2.320319890975952 8.930950164794922 5.625629901885986 5.625629901885986 C 8.930950164794922 2.320319890975952 13.32557964324951 0.5 18 0.5 C 22.67441940307617 0.5 27.06905937194824 2.320319890975952 30.37437057495117 5.625629901885986 C 33.67967987060547 8.930950164794922 35.5 13.32557964324951 35.5 18 C 35.5 22.67441940307617 33.67967987060547 27.06905937194824 30.37437057495117 30.37437057495117 C 27.06905937194824 33.67967987060547 22.67441940307617 35.5 18 35.5 Z"/>
    <path class="cls-6" d="M 18 1 C 13.45914077758789 1 9.190059661865234 2.768310546875 5.979190826416016 5.979190826416016 C 2.768310546875 9.190059661865234 1 13.45914077758789 1 18 C 1 22.54087066650391 2.768310546875 26.80994033813477 5.979190826416016 30.02082061767578 C 9.190059661865234 33.231689453125 13.45914077758789 35 18 35 C 22.54087066650391 35 26.80994033813477 33.231689453125 30.02082061767578 30.02082061767578 C 33.231689453125 26.80994033813477 35 22.54087066650391 35 18 C 35 13.45914077758789 33.231689453125 9.190059661865234 30.02082061767578 5.979190826416016 C 26.80994033813477 2.768310546875 22.54087066650391 1 18 1 M 18 0 C 27.94112968444824 0 36 8.058879852294922 36 18 C 36 27.94112968444824 27.94112968444824 36 18 36 C 8.058879852294922 36 0 27.94112968444824 0 18 C 0 8.058879852294922 8.058879852294922 0 18 0 Z"/>
  </g>
  <path id="Tracé_21" data-name="Tracé 21" class="cls-3" d="M-4.078,1.281H13.84L9.974,7.24l3.866,2.887L9.115,9.449,6.665,15.394-4.078,1.281,9.115,9.449-4.078,1.281,9.974,7.24" transform="matrix(-0.07, 0.998, -0.998, -0.07, 27.576, 13.482)"/>
  <line id="Ligne_4" data-name="Ligne 4" class="cls-3" x1="3" y2="5" transform="translate(10.5 23.5)"/>
  <line id="Ligne_5" data-name="Ligne 5" class="cls-3" x1="3" y2="5" transform="translate(17.5 27.5)"/>
  <line id="Ligne_6" data-name="Ligne 6" class="cls-3" x1="2" y2="3" transform="translate(12.5 29.5)"/>
</svg>
