<svg xmlns="http://www.w3.org/2000/svg" width="100" height="100" viewBox="0 0 100 100">
  <g id="Groupe_9" data-name="Groupe 9" transform="translate(-4079 -392)">
    <g id="Ellipse_28" data-name="Ellipse 28" transform="translate(4079 392)" fill="#f55959" stroke="#dc1818" stroke-width="1">
      <circle cx="50" cy="50" r="50" stroke="none"/>
      <circle cx="50" cy="50" r="49.5" fill="none"/>
    </g>
    <path id="Tracé_55" data-name="Tracé 55" d="M3986.308,412.947c1.241-1.592,16.114-13.924,31.524-16.109,16.387,2.731,31.565,13.378,33.2,16.109-.273,22.668,8.309,48.887-33.2,72.375C3976.476,463.2,3986.308,435.619,3986.308,412.947Z" transform="translate(111 3)" stroke="#707070" stroke-width="1"/>
    <path id="Tracé_57" data-name="Tracé 57" d="M3986.308,412.947c1.241-1.592,16.114-13.924,31.524-16.109.393.066.287,72.762,0,88.484C3976.476,463.2,3986.308,435.619,3986.308,412.947Z" transform="translate(111 3)" fill="#fbfbfb" stroke="#707070" stroke-width="1"/>
    <g id="Tracé_59" data-name="Tracé 59" transform="translate(4134 425)" fill="#f55959">
      <path d="M 18.71151924133301 12.93438911437988 L 0.491600900888443 12.93438911437988 L 5.955606460571289 3.247876405715942 L 24.46150016784668 0.9346657395362854 L 18.71151924133301 12.93438911437988 Z" stroke="none"/>
      <path d="M 23.61490249633789 1.544380187988281 L 6.267429351806641 3.712790489196777 L 1.347715377807617 12.43438911437988 L 18.39667129516602 12.43438911437988 L 23.61490249633789 1.544380187988281 M 25.30810165405273 0.3249492645263672 L 19.02637100219727 13.43438911437988 L -0.3644981384277344 13.43438911437988 L 5.643802642822266 2.782958984375 L 25.30810165405273 0.3249492645263672 Z" stroke="none" fill="#707070"/>
    </g>
    <g id="Tracé_60" data-name="Tracé 60" transform="translate(4100 425)" fill="#f55959">
      <path d="M 24.77377891540527 12.93438911437988 L 6.310409069061279 12.93438911437988 L 0.4867269992828369 0.9338032007217407 L 19.24049758911133 3.248501062393188 L 24.77377891540527 12.93438911437988 Z" stroke="none"/>
      <path d="M 1.337961196899414 1.542667388916016 L 6.623529434204102 12.43438911437988 L 23.91230583190918 12.43438911437988 L 18.93061828613281 3.714054107666016 L 1.337961196899414 1.542667388916016 M -0.3645076751708984 0.3249492645263672 L 19.55038261413574 2.782958984375 L 25.63525390625 13.43438911437988 L 5.997283935546875 13.43438911437988 L -0.3645076751708984 0.3249492645263672 Z" stroke="none" fill="#707070"/>
    </g>
    <path id="Tracé_61" data-name="Tracé 61" d="M4046.1,410.581c-14.475-3-23.006,11.651-23.006,11.651s15.844-13.317,28.681-5.4C4051.555,415.4,4052.129,413.676,4046.1,410.581Z" transform="translate(110 1)" fill="#fbfbfb"/>
    <path id="Tracé_63" data-name="Tracé 63" d="M4029.792,410.581c14.347-3,22.8,11.651,22.8,11.651s-15.092-13.46-27.816-5.54C4024.994,415.472,4023.126,414.825,4029.792,410.581Z" transform="translate(73 1)"/>
    <path id="Tracé_67" data-name="Tracé 67" d="M3994.2,463.653s7.647,3,11.41,2.824a10.058,10.058,0,0,1-3.49,8.1C3999.268,473.872,3994.2,463.653,3994.2,463.653Z" transform="translate(107 -1)"/>
    <path id="Tracé_68" data-name="Tracé 68" d="M3988.1,450.09s1.467-1.084,5.563-1.357c-1.093,3.824-1.467,4.907-1.439,13.92C3991.2,463.2,3988.1,450.09,3988.1,450.09Z" transform="translate(109)"/>
    <path id="Tracé_69" data-name="Tracé 69" d="M3995.5,450.333a85.5,85.5,0,0,0,0,10.954h7.1S4001.467,453.267,3995.5,450.333Z" transform="translate(110)"/>
    <path id="Tracé_70" data-name="Tracé 70" d="M4005.611,463.653s-7.647,3-11.41,2.824c-.06,4.55,3.49,8.1,3.49,8.1Z" transform="translate(151.411 -1)" fill="#fff"/>
    <path id="Tracé_71" data-name="Tracé 71" d="M3993.667,450.09s-1.467-1.084-5.563-1.357c1.093,3.824,1.467,4.907,1.439,13.92C3990.573,463.2,3993.667,450.09,3993.667,450.09Z" transform="translate(166.8)" fill="#fff"/>
    <path id="Tracé_72" data-name="Tracé 72" d="M4002.411,450.333a85.5,85.5,0,0,1,0,10.954h-7.1S3996.449,453.267,4002.411,450.333Z" transform="translate(150.306)" fill="#fff"/>
    <path id="Tracé_73" data-name="Tracé 73" d="M4010.352,435.667s-2.288,5.132-.36,5.3S4010.352,435.667,4010.352,435.667Z" transform="translate(88)"/>
    <path id="Tracé_74" data-name="Tracé 74" d="M4013.49,439.426s-2.026,5.852,1.439,5.3S4013.49,439.426,4013.49,439.426Z" transform="translate(88)"/>
    <path id="Tracé_75" data-name="Tracé 75" d="M4056.5,443.943s-2.037,5.406.3,5.381S4056.5,443.943,4056.5,443.943Z" transform="translate(88)" fill="#fff"/>
    <path id="Tracé_76" data-name="Tracé 76" d="M4063.241,443.943s-.051,4.878,2.163,3.973S4063.241,443.943,4063.241,443.943Z" transform="translate(88)" fill="#fff"/>
    <path id="Tracé_77" data-name="Tracé 77" d="M4068.472,439.895s.5,3.671,2.112,3.143S4068.472,439.895,4068.472,439.895Z" transform="translate(88)" fill="#fff"/>
    <path id="Tracé_78" data-name="Tracé 78" d="M4070.988,437.211s1.734,2.376,2.4,1.6S4070.988,437.211,4070.988,437.211Z" transform="translate(88)" fill="#fff"/>
  </g>
</svg>
