<svg id="lettre_grise" data-name="lettre grise" xmlns="http://www.w3.org/2000/svg" width="40" height="40" viewBox="0 0 40 40">
  <defs>
    <style>
      .cls-1, .cls-2, .cls-3 {
        fill: #f8b312;
      }

      .cls-1 {
        stroke: #f8b312;
      }

      .cls-2, .cls-4 {
        stroke: #fff;
      }

      .cls-4, .cls-6 {
        fill: none;
      }

      .cls-5, .cls-7 {
        stroke: none;
      }

      .cls-7 {
        fill: #fff;
      }
    </style>
  </defs>
  <g id="Ellipse_24" data-name="Ellipse 24" class="cls-1" transform="translate(40 40) rotate(180)">
    <circle class="cls-5" cx="20" cy="20" r="20"/>
    <circle class="cls-6" cx="20" cy="20" r="19.5"/>
  </g>
  <g id="Ellipse_25" data-name="Ellipse 25" class="cls-2" transform="translate(38 38) rotate(180)">
    <circle class="cls-5" cx="18" cy="18" r="18"/>
    <circle class="cls-6" cx="18" cy="18" r="17.5"/>
  </g>
  <g id="Tracé_47" data-name="Tracé 47" class="cls-3" transform="translate(8 13)">
    <path class="cls-5" d="M 23.5 14.5 L 0.5 14.5 L 0.5 0.5 L 23.5 0.5 L 23.5 14.5 Z"/>
    <path class="cls-7" d="M 1 1 L 1 14 L 23 14 L 23 1 L 1 1 M 0 0 L 24 0 L 24 15 L 0 15 L 0 0 Z"/>
  </g>
  <path id="Tracé_46" data-name="Tracé 46" class="cls-4" d="M-151.52-45.46-140-39l11.507-6.46" transform="translate(160 59)"/>
</svg>
