<svg id="suivant-précédent" xmlns="http://www.w3.org/2000/svg" width="40" height="40" viewBox="0 0 40 40">
  <defs>
    <style>
      .cls-1, .cls-2 {
        fill: #f8b312;
      }

      .cls-3 {
        fill: none;
        stroke: #fff;
      }

      .cls-4, .cls-5 {
        stroke: none;
      }

      .cls-5 {
        fill: #fff;
      }
    </style>
  </defs>
  <path id="Tracé_41" data-name="Tracé 41" class="cls-1" d="M20,0A20,20,0,1,1,0,20,20,20,0,0,1,20,0Z"/>
  <g id="Tracé_42" data-name="Tracé 42" class="cls-2" transform="translate(2 2)">
    <path class="cls-4" d="M 18 35.5 C 13.32557964324951 35.5 8.930950164794922 33.67967987060547 5.625629901885986 30.37437057495117 C 2.320319890975952 27.06905937194824 0.5 22.67441940307617 0.5 18 C 0.5 13.32557964324951 2.320319890975952 8.930950164794922 5.625629901885986 5.625629901885986 C 8.930950164794922 2.320319890975952 13.32557964324951 0.5 18 0.5 C 22.67441940307617 0.5 27.06905937194824 2.320319890975952 30.37437057495117 5.625629901885986 C 33.67967987060547 8.930950164794922 35.5 13.32557964324951 35.5 18 C 35.5 22.67441940307617 33.67967987060547 27.06905937194824 30.37437057495117 30.37437057495117 C 27.06905937194824 33.67967987060547 22.67441940307617 35.5 18 35.5 Z"/>
    <path class="cls-5" d="M 18 1 C 13.45914077758789 1 9.190059661865234 2.768310546875 5.979190826416016 5.979190826416016 C 2.768310546875 9.190059661865234 1 13.45914077758789 1 18 C 1 22.54087066650391 2.768310546875 26.80994033813477 5.979190826416016 30.02082061767578 C 9.190059661865234 33.231689453125 13.45914077758789 35 18 35 C 22.54087066650391 35 26.80994033813477 33.231689453125 30.02082061767578 30.02082061767578 C 33.231689453125 26.80994033813477 35 22.54087066650391 35 18 C 35 13.45914077758789 33.231689453125 9.190059661865234 30.02082061767578 5.979190826416016 C 26.80994033813477 2.768310546875 22.54087066650391 1 18 1 M 18 0 C 27.94112968444824 0 36 8.058879852294922 36 18 C 36 27.94112968444824 27.94112968444824 36 18 36 C 8.058879852294922 36 0 27.94112968444824 0 18 C 0 8.058879852294922 8.058879852294922 0 18 0 Z"/>
  </g>
  <path id="Tracé_15" data-name="Tracé 15" class="cls-3" d="M30,15l4,5-4,5" transform="translate(-16.154 0)"/>
  <path id="Tracé_16" data-name="Tracé 16" class="cls-3" d="M30,15l4,5-4,5" transform="translate(-7.846 0)"/>
</svg>
