<svg xmlns="http://www.w3.org/2000/svg" width="500" height="500" viewBox="0 0 500 500">
  <g id="Tracé_79" data-name="Tracé 79" fill="#f55959">
    <path d="M 250 491 C 117.1121444702148 491 9 382.8878479003906 9 250 C 9 117.1121444702148 117.1121444702148 9 250 9 C 382.8878479003906 9 491 117.1121444702148 491 250 C 491 382.8878479003906 382.8878479003906 491 250 491 Z" stroke="none"/>
    <path d="M 250 18 C 122.0747375488281 18 18 122.0747375488281 18 250 C 18 377.9252319335938 122.0747375488281 482 250 482 C 377.9252319335938 482 482 377.9252319335938 482 250 C 482 122.0747375488281 377.9252319335938 18 250 18 M 250 0 C 388.0711669921875 0 500 111.9288330078125 500 250 C 500 388.0711669921875 388.0711669921875 500 250 500 C 111.9288330078125 500 0 388.0711669921875 0 250 C 0 111.9288330078125 111.9288330078125 0 250 0 Z" stroke="none" fill="#dc1818"/>
  </g>
</svg>
