<svg id="insta" xmlns="http://www.w3.org/2000/svg" width="40" height="40" viewBox="0 0 40 40">
  <defs>
    <style>
      .cls-1, .cls-2 {
        fill: #f8b312;
      }

      .cls-1 {
        stroke: #f8b312;
      }

      .cls-2, .cls-4 {
        stroke: #fff;
      }

      .cls-3, .cls-4 {
        fill: #fff;
      }

      .cls-5 {
        stroke: none;
      }

      .cls-6 {
        fill: none;
      }
    </style>
  </defs>
  <g id="lettre_grise" data-name="lettre grise">
    <g id="Ellipse_24" data-name="Ellipse 24" class="cls-1" transform="translate(40 40) rotate(180)">
      <circle class="cls-5" cx="20" cy="20" r="20"/>
      <circle class="cls-6" cx="20" cy="20" r="19.5"/>
    </g>
    <g id="Ellipse_25" data-name="Ellipse 25" class="cls-2" transform="translate(38 38) rotate(180)">
      <circle class="cls-5" cx="18" cy="18" r="18"/>
      <circle class="cls-6" cx="18" cy="18" r="17.5"/>
    </g>
    <g id="surface25595624" transform="translate(3.831 -0.281)">
      <path id="Tracé_51" data-name="Tracé 51" class="cls-3" d="M28.216,13.351a.407.407,0,0,0-.5-.125,8.059,8.059,0,0,1-.811.332,5.247,5.247,0,0,0,.8-1.614.481.481,0,0,0-.139-.5.4.4,0,0,0-.486-.04,7.984,7.984,0,0,1-2.418,1.029A4.641,4.641,0,0,0,21.34,11a4.977,4.977,0,0,0-4.8,5.13,5.276,5.276,0,0,0,.028.562A11.827,11.827,0,0,1,8.414,12.02a.416.416,0,0,0-.365-.166.422.422,0,0,0-.335.226,5.44,5.44,0,0,0,.311,5.672,3.776,3.776,0,0,1-.368-.19.4.4,0,0,0-.424.009.475.475,0,0,0-.209.4v.056a5.261,5.261,0,0,0,2.052,4.207.046.046,0,0,1-.015,0,.41.41,0,0,0-.4.152.5.5,0,0,0-.085.448,4.963,4.963,0,0,0,3.331,3.388,7.88,7.88,0,0,1-4.269,1.248,7.723,7.723,0,0,1-.99-.063.428.428,0,0,0-.456.3.479.479,0,0,0,.176.545,12.243,12.243,0,0,0,6.925,2.167c8.049,0,12.857-6.988,12.857-13.745,0-.126,0-.251-.005-.376a9.4,9.4,0,0,0,2.1-2.389A.49.49,0,0,0,28.216,13.351Zm-2.755,2.338a.471.471,0,0,0-.181.4c.008.191.013.386.013.581,0,6.3-4.488,12.821-12,12.821a11.327,11.327,0,0,1-4.93-1.134,8.8,8.8,0,0,0,4.964-2.066.484.484,0,0,0,.144-.509.439.439,0,0,0-.4-.318,3.918,3.918,0,0,1-3.408-2.236,4.362,4.362,0,0,0,1.405-.181.463.463,0,0,0,.315-.462.455.455,0,0,0-.345-.437,4.11,4.11,0,0,1-3.107-3.444,4.556,4.556,0,0,0,1.487.309.431.431,0,0,0,.422-.321.481.481,0,0,0-.171-.525,4.3,4.3,0,0,1-1.752-3.5,4.489,4.489,0,0,1,.263-1.519,12.564,12.564,0,0,0,8.881,4.511.4.4,0,0,0,.35-.164.482.482,0,0,0,.089-.4,4.555,4.555,0,0,1-.1-.961,4.084,4.084,0,0,1,3.939-4.206,3.832,3.832,0,0,1,2.874,1.327.41.41,0,0,0,.392.137,8.666,8.666,0,0,0,1.737-.558,4.092,4.092,0,0,1-1.184,1.161.478.478,0,0,0-.186.547.423.423,0,0,0,.457.309,8.534,8.534,0,0,0,1.2-.242A8.456,8.456,0,0,1,25.461,15.689Zm0,0" transform="translate(-0.395)"/>
    </g>
  </g>
  <g id="Ellipse_27" data-name="Ellipse 27" class="cls-4" transform="translate(24 14)">
    <circle class="cls-5" cx="1" cy="1" r="1"/>
    <circle class="cls-6" cx="1" cy="1" r="0.5"/>
  </g>
</svg>
