<svg id="Composant_14_1" data-name="Composant 14 – 1" xmlns="http://www.w3.org/2000/svg" width="500" height="500" viewBox="0 0 500 500">
  <defs>
    <style>
      .cls-1 {
        fill: #f55959;
      }

      .cls-2, .cls-3 {
        stroke: #707070;
      }

      .cls-3, .cls-4 {
        fill: #fbfbfb;
      }

      .cls-5 {
        fill: #fff;
      }

      .cls-6, .cls-7, .cls-8 {
        stroke: none;
      }

      .cls-7 {
        fill: #dc1818;
      }

      .cls-8 {
        fill: #707070;
      }
    </style>
  </defs>
  <g id="Tracé_79" data-name="Tracé 79" class="cls-1">
    <path class="cls-6" d="M 250 491 C 117.1121444702148 491 9 382.8878479003906 9 250 C 9 117.1121444702148 117.1121444702148 9 250 9 C 382.8878479003906 9 491 117.1121444702148 491 250 C 491 382.8878479003906 382.8878479003906 491 250 491 Z"/>
    <path class="cls-7" d="M 250 18 C 122.0747375488281 18 18 122.0747375488281 18 250 C 18 377.9252319335938 122.0747375488281 482 250 482 C 377.9252319335938 482 482 377.9252319335938 482 250 C 482 122.0747375488281 377.9252319335938 18 250 18 M 250 0 C 388.0711669921875 0 500 111.9288330078125 500 250 C 500 388.0711669921875 388.0711669921875 500 250 500 C 111.9288330078125 500 0 388.0711669921875 0 250 C 0 111.9288330078125 111.9288330078125 0 250 0 Z"/>
  </g>
  <path id="Tracé_55" data-name="Tracé 55" class="cls-2" d="M3989.971,469.9c5.7-7.222,73.95-63.149,144.672-73.058,75.2,12.386,144.862,60.672,152.383,73.058-1.253,102.8,38.132,221.708-152.383,328.227C3944.851,697.815,3989.971,572.718,3989.971,469.9Z" transform="translate(-3886.671 -341.801)"/>
  <path id="Tracé_57" data-name="Tracé 57" class="cls-3" d="M3990.01,469.866c5.741-7.219,74.548-63.124,145.843-73.029,1.821.3,1.326,329.85,0,401.127C3944.521,697.7,3990.01,572.648,3990.01,469.866Z" transform="translate(-3886.671 -341.8)"/>
  <g id="Tracé_59" data-name="Tracé 59" class="cls-1" transform="translate(281.506 179.353)">
    <path class="cls-6" d="M 69.16410827636719 47.04348754882813 L 0.4916063845157623 47.04348754882813 L 21.58845329284668 9.643296241760254 L 91.25838470458984 0.9346725940704346 L 69.16410827636719 47.04348754882813 Z"/>
    <path class="cls-8" d="M 90.41178131103516 1.544380187988281 L 21.9002685546875 10.10820388793945 L 1.34771728515625 46.54347991943359 L 68.84925079345703 46.54347991943359 L 90.41178131103516 1.544380187988281 M 92.10498046875 0.324951171875 L 69.47895050048828 47.54347991943359 L -0.364501953125 47.54347991943359 L 21.27664184570313 9.178379058837891 L 92.10498046875 0.324951171875 Z"/>
  </g>
  <g id="Tracé_60" data-name="Tracé 60" class="cls-1" transform="translate(126.887 179.353)">
    <path class="cls-6" d="M 92.42179870605469 47.04346466064453 L 22.86296081542969 47.04346466064453 L 0.4867412149906158 0.9338164329528809 L 71.05648803710938 9.643927574157715 L 92.42179870605469 47.04346466064453 Z"/>
    <path class="cls-8" d="M 1.337966918945313 1.542678833007813 L 23.17608642578125 46.54345321655273 L 91.56032562255859 46.54345321655273 L 70.74661254882813 10.10947799682617 L 1.337966918945313 1.542678833007813 M -0.364501953125 0.3249549865722656 L 71.36637115478516 9.178379058837891 L 93.28327178955078 47.54345321655273 L 22.54983520507813 47.54345321655273 L -0.364501953125 0.3249549865722656 Z"/>
  </g>
  <path id="Tracé_61" data-name="Tracé 61" class="cls-4" d="M4126.31,412c-64.945-13.479-103.221,52.276-103.221,52.276s68.677-60.994,126.271-25.459C4148.393,432.369,4153.382,425.882,4126.31,412Z" transform="translate(-3747.159 -301.196)"/>
  <path id="Tracé_63" data-name="Tracé 63" d="M4048.271,412.052c66.326-13.889,105.415,53.865,105.415,53.865s-69.773-62.228-128.6-25.612C4026.085,434.661,4017.454,431.672,4048.271,412.052Z" transform="translate(-3923.074 -301.196)"/>
  <path id="Tracé_67" data-name="Tracé 67" d="M3996.169,465.849c10.663,5.331,45.113,16.3,68.286,15.19.367,28.017-10.984,43.034-20.3,52.595C4019.78,514.593,4000.739,481.843,3996.169,465.849Z" transform="translate(-3881.941 -140.682)"/>
  <path id="Tracé_68" data-name="Tracé 68" d="M3990.09,454.951c12.1-6.974,15.077-6.092,27.287-6.217-5.75,20.118-7.719,25.82-7.572,73.24C4003.424,514.233,3992.962,480.592,3990.09,454.951Z" transform="translate(-3889.685 -188.08)"/>
  <path id="Tracé_69" data-name="Tracé 69" d="M3996.295,450.333c-2.217,18.9,0,50.993,0,50.993l35.943,4.453S4026.473,465.181,3996.295,450.333Z" transform="translate(-3858.619 -181.491)"/>
  <path id="Tracé_70" data-name="Tracé 70" class="cls-5" d="M4042.5,463.653s-32.369,12.717-48.3,11.952c-.252,19.262,2.322,29.187,14.773,34.29C4026.228,497.861,4042.5,463.653,4042.5,463.653Z" transform="translate(-3662.398 -129.682)"/>
  <path id="Tracé_71" data-name="Tracé 71" class="cls-5" d="M4011.289,448.733s-7.08-4.132-23.186,0c4.84,23.359,3.414,18.312,3.309,52.6C4004.539,480,4011.289,448.733,4011.289,448.733Z" transform="translate(-3613.825 -165.08)"/>
  <path id="Tracé_72" data-name="Tracé 72" class="cls-5" d="M4016.683,450.333c1.317,11.236,0,32.968,0,32.968h-21.373S3998.739,459.162,4016.683,450.333Z" transform="translate(-3652.836 -157.719)"/>
  <path id="Tracé_73" data-name="Tracé 73" d="M4015.549,435.667s-12.787,28.685-2.01,29.6S4015.549,435.667,4015.549,435.667Z" transform="translate(-3905 -234.476)"/>
  <path id="Tracé_74" data-name="Tracé 74" d="M4015.131,439.426s-7.673,22.157,5.447,20.053S4015.131,439.426,4015.131,439.426Z" transform="translate(-3894.36 -214.902)"/>
  <path id="Tracé_75" data-name="Tracé 75" class="cls-5" d="M4061.479,443.943s-14.382,38.178,2.133,38S4061.479,443.943,4061.479,443.943Z" transform="translate(-3723.946 -204.102)"/>
  <path id="Tracé_76" data-name="Tracé 76" class="cls-5" d="M4063.238,443.943s-.358,34.524,15.3,28.118S4063.238,443.943,4063.238,443.943Z" transform="translate(-3708.687 -208.844)"/>
  <path id="Tracé_77" data-name="Tracé 77" class="cls-5" d="M4068.471,439.895s3.5,25.562,14.707,21.885S4068.471,439.895,4068.471,439.895Z" transform="translate(-3694.529 -220.524)"/>
  <path id="Tracé_78" data-name="Tracé 78" class="cls-5" d="M4070.986,437.21s12.463,17.077,17.23,11.517S4070.986,437.21,4070.986,437.21Z" transform="translate(-3691.969 -227.981)"/>
</svg>
