<svg xmlns="http://www.w3.org/2000/svg" xmlns:xlink="http://www.w3.org/1999/xlink" width="137.863" height="147.013" viewBox="0 0 137.863 147.013">
  <defs>
    <linearGradient id="linear-gradient" x1="0.5" x2="0.5" y2="1" gradientUnits="objectBoundingBox">
      <stop offset="0" stop-color="#fcb612"/>
      <stop offset="1" stop-color="#543b00"/>
    </linearGradient>
  </defs>
  <g id="Groupe_4" data-name="Groupe 4" transform="translate(-637.451 370.894)">
    <path id="Tracé_48" data-name="Tracé 48" d="M154.113,213.339c1.579.773,4.9,1.408,9.182,3.63,3.265-2.945,2.857-2.5,6.554-5.545-1.248-3.624-1.248-3.4-3.612-7.847,2.568-3.334,3.18-3.112,5.629-6.446,4.286.222,10,.222,15.307,0,3.061,2.667,3.469,3.334,6.735,6.446a53.835,53.835,0,0,0-4.694,9.762c11.359,4.017,40.2,2.189,44.464,2.3,3.5,5.112,22.885,9.113,34.857,11.733-7.074,2.937-34.857,8.589-34.857,8.589s2.523,29.3-14.121,41.97c2.249,8.017,5.832,22.134,16.2,33.19-4.37,2.026,3.174,21.911,0,23.367s-13.781-15.041-19.521-14.689c-.74-14.567-14.836-33.307-14.836-33.307s-7.661,1.522-16.039,2.717c.554-8.9,1.814-17.977,1.814-17.977s17.025-2.6,22.053-7.886c6.539-6.874,7.773-18.83,7.008-26.071-3.441.161-24.107,1.782-24.107,1.782l2.311,12.589-8.349,5.984,1.084,13.6s-4.337,28.591-1.084,47.539c-5.515,2.753-5.425,23.781-8.942,23.344-4.144-.512-.814-16.429-8.546-23.344,4.622-24.3-3.489-58.271-3.878-59.345-1.855-5.166-4.9-6.446-4.9-6.446l6.412-15.7s-4.779,3.2-10.086,7.259C150.845,233.14,150.233,226.3,154.113,213.339Z" transform="translate(503.457 -567)" stroke="#a87600" stroke-width="2" fill="url(#linear-gradient)"/>
    <path id="Tracé_49" data-name="Tracé 49" d="M171.564,303.482c-7.315.581-27.84,3.4-27.84,3.4s1.655-18.86-5.981-22.866c5.731-5.075,6.621-5.032,11.477-8.564,10.153,11.212,20.071,10.258,20.071,10.258S170.811,291.557,171.564,303.482Z" transform="translate(501.457 -580.098)" stroke="#a87600" stroke-width="2" fill="url(#linear-gradient)"/>
  </g>
</svg>
